<svg xmlns="http://www.w3.org/2000/svg" viewBox="0 0 128 128" role="img" aria-label="WhatsApp">
  <defs>
    <linearGradient id="wa" x1="0%" y1="0%" x2="100%" y2="100%">
      <stop offset="0%" stop-color="#2adf74" />
      <stop offset="100%" stop-color="#18b55a" />
    </linearGradient>
  </defs>
  <circle cx="64" cy="64" r="50" fill="url(#wa)" />
  <path d="M38 98l5-18a37 37 0 1 1 16 14l-21 4Z" fill="#fff" opacity="0.9" />
  <path d="M80 71c-2 1-5 3-6 3c-2 0-4-1-7-3c-5-3-9-9-11-14c-1-2 0-4 1-5l3-4c1-1 1-2 1-3l-3-7c-1-2-3-2-4-2h-3c-1 0-3 1-4 3c-4 5-4 13 0 20c7 14 18 21 31 24c6 2 12 1 16-3c2-2 4-6 4-9l-7-3c-2-1-4 0-5 1l-3 3c-1 1-2 1-3 0Z" fill="#18b55a" />
</svg>
