<svg xmlns="http://www.w3.org/2000/svg" viewBox="0 0 170 190" role="img" aria-label="Orsetto con fiocco rosa seduto">
  <defs>
    <radialGradient id="fur" cx="50%" cy="30%" r="78%">
      <stop offset="0%" stop-color="#e8c8a8" />
      <stop offset="100%" stop-color="#c4946e" />
    </radialGradient>
    <radialGradient id="ear" cx="40%" cy="35%" r="70%">
      <stop offset="0%" stop-color="#e5bf99" />
      <stop offset="100%" stop-color="#b6805a" />
    </radialGradient>
    <radialGradient id="muzzle" cx="50%" cy="35%" r="70%">
      <stop offset="0%" stop-color="#f6e3d0" />
      <stop offset="100%" stop-color="#e7c6a7" />
    </radialGradient>
    <radialGradient id="belly" cx="50%" cy="20%" r="85%">
      <stop offset="0%" stop-color="#f6e4d4" />
      <stop offset="100%" stop-color="#e8c6a8" />
    </radialGradient>
    <linearGradient id="bow" x1="0%" y1="0%" x2="100%" y2="100%">
      <stop offset="0%" stop-color="#f7d6de" />
      <stop offset="100%" stop-color="#d98ca0" />
    </linearGradient>
  </defs>

  <ellipse cx="85" cy="169" rx="46" ry="11" fill="#b78462" opacity="0.22" />

  <circle cx="45" cy="38" r="19" fill="url(#ear)" />
  <circle cx="125" cy="38" r="19" fill="url(#ear)" />
  <circle cx="45" cy="38" r="8" fill="#efcfb2" opacity="0.7" />
  <circle cx="125" cy="38" r="8" fill="#efcfb2" opacity="0.7" />

  <ellipse cx="85" cy="112" rx="43" ry="49" fill="url(#fur)" />
  <ellipse cx="85" cy="122" rx="27" ry="30" fill="url(#belly)" />

  <ellipse cx="56" cy="112" rx="12" ry="21" fill="url(#fur)" transform="rotate(14 56 112)" />
  <ellipse cx="114" cy="112" rx="12" ry="21" fill="url(#fur)" transform="rotate(-14 114 112)" />

  <circle cx="52" cy="128" r="11" fill="url(#fur)" />
  <circle cx="118" cy="128" r="11" fill="url(#fur)" />
  <ellipse cx="52" cy="130" rx="6.8" ry="5.8" fill="#e9cbad" opacity="0.9" />
  <ellipse cx="118" cy="130" rx="6.8" ry="5.8" fill="#e9cbad" opacity="0.9" />
  <circle cx="48.2" cy="123.8" r="1.8" fill="#ddb08f" opacity="0.9" />
  <circle cx="52" cy="122.6" r="1.8" fill="#ddb08f" opacity="0.9" />
  <circle cx="55.8" cy="123.8" r="1.8" fill="#ddb08f" opacity="0.9" />
  <circle cx="114.2" cy="123.8" r="1.8" fill="#ddb08f" opacity="0.9" />
  <circle cx="118" cy="122.6" r="1.8" fill="#ddb08f" opacity="0.9" />
  <circle cx="121.8" cy="123.8" r="1.8" fill="#ddb08f" opacity="0.9" />

  <ellipse cx="66" cy="151" rx="22" ry="18" fill="url(#fur)" transform="rotate(-8 66 151)" />
  <ellipse cx="104" cy="151" rx="22" ry="18" fill="url(#fur)" transform="rotate(8 104 151)" />
  <ellipse cx="66" cy="154" rx="10" ry="7" fill="#ebcfb4" opacity="0.9" />
  <ellipse cx="104" cy="154" rx="10" ry="7" fill="#ebcfb4" opacity="0.9" />

  <circle cx="85" cy="68" r="40" fill="url(#fur)" />
  <ellipse cx="85" cy="82" rx="21" ry="17" fill="url(#muzzle)" />

  <circle cx="72" cy="65" r="3.8" fill="#2e2422" />
  <circle cx="98" cy="65" r="3.8" fill="#2e2422" />
  <ellipse cx="85" cy="75" rx="5.8" ry="4.2" fill="#9d6a50" />
  <path d="M82 80c1.6 2.7 3.6 4.2 2.5 7.5" stroke="#7a4f3a" stroke-width="2" stroke-linecap="round" fill="none" />
  <path d="M88 80c-1.6 2.7-3.6 4.2-2.5 7.5" stroke="#7a4f3a" stroke-width="2" stroke-linecap="round" fill="none" />

  <path d="M60 102c8-10 17-10 25 0c-10 10-18 10-25 0Z" fill="url(#bow)" />
  <path d="M110 102c-8-10-17-10-25 0c10 10 18 10 25 0Z" fill="url(#bow)" />
  <circle cx="85" cy="102" r="6.2" fill="#cf7f95" />
</svg>
